<?xml version="1.0" encoding="UTF-8" standalone="no"?>
<!-- Created with Inkscape (http://www.inkscape.org/) -->

<svg
   xmlns:dc="http://purl.org/dc/elements/1.1/"
   xmlns:cc="http://creativecommons.org/ns#"
   xmlns:rdf="http://www.w3.org/1999/02/22-rdf-syntax-ns#"
   xmlns:svg="http://www.w3.org/2000/svg"
   xmlns="http://www.w3.org/2000/svg"
   xmlns:sodipodi="http://sodipodi.sourceforge.net/DTD/sodipodi-0.dtd"
   xmlns:inkscape="http://www.inkscape.org/namespaces/inkscape"
   width="94.286003"
   height="33"
   id="svg2759"
   sodipodi:version="0.32"
   inkscape:version="0.48.5 r10040"
   version="1.0"
   sodipodi:docname="Licence03.svg"
   inkscape:output_extension="org.inkscape.output.svg.inkscape">
  <defs
     id="defs2761" />
  <sodipodi:namedview
     id="base"
     pagecolor="#ffffff"
     bordercolor="#8b8b8b"
     borderopacity="1"
     gridtolerance="10000"
     guidetolerance="10"
     objecttolerance="10"
     inkscape:pageopacity="0.0"
     inkscape:pageshadow="2"
     inkscape:zoom="10.612645"
     inkscape:cx="48.550378"
     inkscape:cy="5.0038599"
     inkscape:document-units="px"
     inkscape:current-layer="g6332_1_"
     width="120px"
     height="42px"
     inkscape:showpageshadow="false"
     inkscape:window-width="1440"
     inkscape:window-height="838"
     inkscape:window-x="-8"
     inkscape:window-y="-8"
     showgrid="false"
     inkscape:window-maximized="1" />
  <metadata
     id="metadata2764">
    <rdf:RDF>
      <cc:Work
         rdf:about="">
        <dc:format>image/svg+xml</dc:format>
        <dc:type
           rdf:resource="http://purl.org/dc/dcmitype/StillImage" />
        <dc:title />
      </cc:Work>
    </rdf:RDF>
  </metadata>
  <g
     inkscape:label="Layer 1"
     inkscape:groupmode="layer"
     id="layer1"
     transform="translate(0,-9)">
    <g
       id="g2630">
      <g
         id="g4769"
         transform="matrix(0.7857143,0,0,0.7857143,-4.3732902e-6,8.9999989)">
        <path
           style="fill:none;fill-opacity:1"
           d="M 3.4083297,0.45268464 116.76243,0.65404185 c 1.58383,0 2.99881,-0.23483394 2.99881,3.16052515 l -0.13878,37.329077 -119.07512582,0 0,-37.467843 c 0,-1.6743929 0.16206577,-3.22311636 2.86099552,-3.22311636 z"
           nodetypes="ccccccc"
           id="path3817_5_"
           inkscape:connector-curvature="0" />
        <path
           style="fill:#ffffff;fill-opacity:1"
           d="M 1.78125 0 C 0.80750331 0 -1.4456029e-019 0.77674478 0 1.75 L 0 32.59375 C 0 32.813716 0.18588483 33 0.40625 33 L 93.875 33 C 94.095377 33 94.28125 32.813708 94.28125 32.59375 L 94.28125 1.75 C 94.28125 0.77674478 93.504231 -9.3964188e-019 92.53125 0 L 1.78125 0 z M 1.78125 0.8125 L 92.53125 0.8125 C 93.065009 0.8125 93.5 1.2162859 93.5 1.75 L 93.5 23.15625 L 28.625 23.15625 C 26.247442 27.454898 21.663111 30.375 16.40625 30.375 C 11.147859 30.375 6.563535 27.457568 4.1875 23.15625 L 0.8125 23.15625 L 0.8125 1.75 C 0.81249222 1.2162859 1.2474761 0.8125 1.78125 0.8125 z M 63.5625 25.59375 C 63.849212 25.59375 64.120318 25.635619 64.375 25.71875 C 64.630448 25.801094 64.861195 25.935166 65.0625 26.09375 C 65.264571 26.251577 65.431345 26.454192 65.5625 26.6875 C 65.693656 26.920808 65.778191 27.167587 65.8125 27.46875 L 64.71875 27.46875 C 64.698919 27.337609 64.661569 27.23403 64.59375 27.125 C 64.525896 27.015212 64.41468 26.894845 64.3125 26.8125 C 64.210321 26.730156 64.097617 26.670744 63.96875 26.625 C 63.839882 26.57847 63.702807 26.5625 63.5625 26.5625 C 63.304764 26.5625 63.086208 26.618886 62.90625 26.71875 C 62.726292 26.817865 62.58008 26.957258 62.46875 27.125 C 62.356662 27.292734 62.30109 27.474014 62.25 27.6875 C 62.198936 27.900986 62.15625 28.115782 62.15625 28.34375 C 62.15625 28.562568 62.198858 28.794134 62.25 29 C 62.301064 29.206623 62.356654 29.36656 62.46875 29.53125 C 62.58008 29.696697 62.726292 29.83762 62.90625 29.9375 C 63.086208 30.03738 63.304764 30.09375 63.5625 30.09375 C 63.911741 30.09375 64.20952 29.995493 64.40625 29.78125 C 64.60298 29.567764 64.706539 29.287459 64.75 28.9375 L 65.875 28.9375 C 65.846031 29.263061 65.746239 29.550226 65.625 29.8125 C 65.503761 30.07554 65.355268 30.28348 65.15625 30.46875 C 64.957233 30.65402 64.736394 30.808657 64.46875 30.90625 C 64.201863 31.003842 63.882764 31.0625 63.5625 31.0625 C 63.1637 31.0625 62.818734 30.982485 62.5 30.84375 C 62.182024 30.705746 61.906351 30.523701 61.6875 30.28125 C 61.468657 30.038034 61.304171 29.734106 61.1875 29.40625 C 61.070836 29.077636 61 28.723447 61 28.34375 C 61 27.954902 61.070834 27.614438 61.1875 27.28125 C 61.304163 26.948061 61.468649 26.654041 61.6875 26.40625 C 61.906351 26.158458 62.182024 25.953548 62.5 25.8125 C 62.818734 25.671452 63.1637 25.59375 63.5625 25.59375 z M 78.25 25.59375 C 78.52222 25.59375 78.781149 25.62653 79.03125 25.6875 C 79.280604 25.747772 79.525071 25.864284 79.71875 26 C 79.913191 26.136473 80.073124 26.288802 80.1875 26.5 C 80.301114 26.711956 80.34375 26.980087 80.34375 27.28125 L 79.21875 27.28125 C 79.20885 27.125711 79.180644 27.007653 79.125 26.90625 C 79.069293 26.804082 78.998516 26.714954 78.90625 26.65625 C 78.814746 26.598319 78.711945 26.554883 78.59375 26.53125 C 78.475557 26.506893 78.359057 26.5 78.21875 26.5 C 78.127245 26.5 78.029005 26.512196 77.9375 26.53125 C 77.845237 26.551081 77.762225 26.576237 77.6875 26.625 C 77.611993 26.673793 77.548802 26.739305 77.5 26.8125 C 77.451977 26.885658 77.4375 26.982432 77.4375 27.09375 C 77.4375 27.195918 77.461115 27.281228 77.5 27.34375 C 77.538885 27.407071 77.604366 27.446629 77.71875 27.5 C 77.833134 27.553405 77.986194 27.602878 78.1875 27.65625 C 78.388805 27.709655 78.643912 27.792656 78.96875 27.875 C 79.065589 27.894054 79.203439 27.917662 79.375 27.96875 C 79.547331 28.019814 79.736968 28.106675 79.90625 28.21875 C 80.076294 28.330826 80.219458 28.46945 80.34375 28.65625 C 80.46728 28.84305 80.53125 29.082988 80.53125 29.375 C 80.53125 29.612884 80.467266 29.858165 80.375 30.0625 C 80.282741 30.266836 80.150989 30.445831 79.96875 30.59375 C 79.786504 30.742427 79.551182 30.855155 79.28125 30.9375 C 79.01208 31.02061 78.69909 31.0625 78.34375 31.0625 C 78.057038 31.0625 77.801182 31.007642 77.53125 30.9375 C 77.261318 30.866605 77.018381 30.775964 76.8125 30.625 C 76.605853 30.474036 76.434504 30.264559 76.3125 30.03125 C 76.191261 29.797942 76.150909 29.508486 76.15625 29.1875 L 77.25 29.1875 C 77.249976 29.362105 77.280447 29.535024 77.34375 29.65625 C 77.407079 29.777476 77.489283 29.862018 77.59375 29.9375 C 77.698217 30.012999 77.827686 30.088407 77.96875 30.125 C 78.109057 30.161614 78.255269 30.15625 78.40625 30.15625 C 78.507664 30.15625 78.602079 30.142569 78.71875 30.125 C 78.834659 30.108217 78.960318 30.080029 79.0625 30.03125 C 79.163912 29.983235 79.243868 29.929147 79.3125 29.84375 C 79.3796 29.759118 79.40625 29.662391 79.40625 29.53125 C 79.40625 29.390202 79.371277 29.275185 79.28125 29.1875 C 79.19204 29.099823 79.082386 29.027454 78.9375 28.96875 C 78.79186 28.910819 78.621269 28.856722 78.4375 28.8125 C 78.252967 28.769011 78.064101 28.709621 77.875 28.65625 C 77.680558 28.607457 77.497033 28.538899 77.3125 28.46875 C 77.128732 28.398641 76.95814 28.330833 76.8125 28.21875 C 76.667617 28.107432 76.557967 27.948984 76.46875 27.78125 C 76.378775 27.613516 76.3125 27.425384 76.3125 27.1875 C 76.3125 26.919886 76.386354 26.665458 76.5 26.46875 C 76.614376 26.272042 76.753732 26.131907 76.9375 26 C 77.122033 25.86886 77.329173 25.750787 77.5625 25.6875 C 77.795069 25.624179 78.017431 25.59375 78.25 25.59375 z M 35.5625 25.71875 L 38.03125 25.71875 C 38.279069 25.71875 38.514391 25.737761 38.71875 25.78125 C 38.923108 25.824739 39.072345 25.90012 39.21875 26 C 39.36439 26.099116 39.481669 26.241568 39.5625 26.40625 C 39.642567 26.571696 39.6875 26.788034 39.6875 27.03125 C 39.6875 27.293532 39.61969 27.512895 39.5 27.6875 C 39.381048 27.862862 39.233327 27.981674 39 28.09375 C 39.321787 28.186002 39.560148 28.362737 39.71875 28.59375 C 39.877351 28.824763 39.9375 29.111931 39.9375 29.4375 C 39.9375 29.699782 39.883456 29.90161 39.78125 30.09375 C 39.679071 30.285125 39.548094 30.441274 39.375 30.5625 C 39.202672 30.684491 39.002389 30.785804 38.78125 30.84375 C 38.559354 30.902459 38.327842 30.9375 38.09375 30.9375 L 35.5625 30.9375 L 35.5625 25.71875 z M 40.15625 25.71875 L 41.4375 25.71875 L 42.65625 27.78125 L 43.84375 25.71875 L 45.125 25.71875 L 43.1875 28.9375 L 43.1875 30.9375 L 42.0625 30.9375 L 42.0625 28.90625 L 40.15625 25.71875 z M 55.84375 25.71875 L 56.96875 25.71875 L 59.15625 29.21875 L 59.15625 25.71875 L 60.25 25.71875 L 60.25 30.9375 L 59.09375 30.9375 L 56.9375 27.4375 L 56.90625 27.4375 L 56.90625 30.9375 L 55.84375 30.9375 L 55.84375 25.71875 z M 82.625 25.71875 L 83.78125 25.71875 L 85.75 30.9375 L 84.5625 30.9375 L 84.15625 29.78125 L 82.21875 29.78125 L 81.8125 30.9375 L 80.65625 30.9375 L 82.625 25.71875 z M 36.71875 26.625 L 36.71875 27.84375 L 37.875 27.84375 C 38.079358 27.84375 38.243844 27.784331 38.375 27.6875 C 38.506921 27.590672 38.59375 27.436803 38.59375 27.21875 C 38.59375 27.097524 38.574747 26.983262 38.53125 26.90625 C 38.487054 26.828488 38.416953 26.794222 38.34375 26.75 C 38.270584 26.706511 38.188308 26.673044 38.09375 26.65625 C 37.998434 26.639467 37.883429 26.625 37.78125 26.625 L 36.71875 26.625 z M 83.1875 27 L 82.5 28.90625 L 83.84375 28.90625 L 83.21875 27 L 83.1875 27 z M 36.71875 28.625 L 36.71875 30.03125 L 37.9375 30.03125 C 38.049588 30.03125 38.179071 30.022094 38.28125 30 C 38.383429 29.977906 38.452707 29.956572 38.53125 29.90625 C 38.60902 29.855186 38.672236 29.775177 38.71875 29.6875 C 38.76451 29.60058 38.8125 29.479466 38.8125 29.34375 C 38.8125 29.076892 38.713464 28.895613 38.5625 28.78125 C 38.411519 28.667644 38.216569 28.625 37.96875 28.625 L 36.71875 28.625 z "
           transform="matrix(1.2727272,0,0,1.2727272,5.5660056e-6,1.4e-6)"
           id="path120" />
        <g
           transform="matrix(0.8674921,0,0,0.8673951,-387.30972,67.870882)"
           id="g5908_5_">
          <path
             style="fill:none;fill-opacity:1"
             d="m 486.26599,-55.7066 c 0.006,8.68079 -7.02789,15.7215 -15.70813,15.72708 -8.68018,0.0056 -15.7215,-7.02786 -15.72705,-15.7081 0,-0.0067 0,-0.01227 0,-0.01898 -0.006,-8.68079 7.02783,-15.7215 15.70807,-15.72711 8.68134,-0.005 15.7226,7.02783 15.72711,15.70807 0,0.0062 0,0.01287 0,0.01904 z"
             rx="22.939548"
             type="arc"
             cy="264.3577"
             ry="22.939548"
             cx="296.35416"
             id="path5906_5_"
             inkscape:connector-curvature="0" />
          <g
             transform="translate(-289.6157,99.0653)"
             id="g5706_5_">
            <path
               style="fill:#ffffff"
               d="m 772.94165,-167.5741 c 3.48486,3.48541 5.22778,7.75336 5.22778,12.80219 0,5.04938 -1.71277,9.27203 -5.13831,12.66794 -3.63586,3.57602 -7.93176,5.36374 -12.89001,5.36374 -4.89783,0 -9.11987,-1.77264 -12.66394,-5.31955 -3.54639,-3.54526 -5.31848,-7.78244 -5.31848,-12.71213 0,-4.92859 1.77209,-9.19598 5.31848,-12.80219 3.45459,-3.48651 7.67664,-5.22949 12.66394,-5.22949 5.04883,0 9.31458,1.74298 12.80054,5.22949 z m -23.11853,2.34485 c -2.94678,2.97638 -4.42017,6.46289 -4.42017,10.46179 0,3.9989 1.45886,7.45581 4.37427,10.37122 2.9176,2.9165 6.38904,4.37476 10.4176,4.37476 4.02856,0 7.53015,-1.47281 10.50708,-4.41895 2.82593,-2.73645 4.23889,-6.17767 4.23889,-10.32703 0,-4.11749 -1.4364,-7.61292 -4.30823,-10.48419 -2.87061,-2.87061 -6.34985,-4.30652 -10.43774,-4.30652 -4.08789,0 -7.54699,1.44318 -10.3717,4.32892 z m 7.75391,8.70319 c -0.44971,-0.98169 -1.12317,-1.47284 -2.02271,-1.47284 -1.58862,0 -2.38293,1.07007 -2.38293,3.20911 0,2.13953 0.79431,3.2085 2.38293,3.2085 1.04944,0 1.79895,-0.52075 2.24866,-1.56458 l 2.20276,1.17303 c -1.05042,1.86548 -2.62561,2.79901 -4.72546,2.79901 -1.62,0 -2.91772,-0.4967 -3.89209,-1.48956 -0.97546,-0.99341 -1.46326,-2.36334 -1.46326,-4.10852 0,-1.71503 0.50342,-3.07654 1.50806,-4.08502 1.00452,-1.00854 2.25757,-1.51257 3.75781,-1.51257 2.22058,0 3.8092,0.87488 4.77136,2.62286 l -2.38513,1.22058 z m 10.36389,0 c -0.45081,-0.98169 -1.11206,-1.47284 -1.98242,-1.47284 -1.62097,0 -2.43213,1.07007 -2.43213,3.20911 0,2.13953 0.81116,3.2085 2.43213,3.2085 1.05164,0 1.78772,-0.52075 2.20728,-1.56458 l 2.25195,1.17303 c -1.04822,1.86548 -2.62109,2.79901 -4.71765,2.79901 -1.61768,0 -2.91199,-0.4967 -3.88647,-1.48956 -0.97217,-0.99341 -1.45996,-2.36334 -1.45996,-4.10852 0,-1.71503 0.49451,-3.07654 1.48352,-4.08502 0.98779,-1.00854 2.24524,-1.51257 3.77344,-1.51257 2.21619,0 3.80371,0.87488 4.76135,2.62286 l -2.43104,1.22058 z"
               id="path5708_5_"
               inkscape:connector-curvature="0" />
          </g>
        </g>
        <g
           id="g126"
           transform="matrix(0.9937808,0,0,0.9936696,-437.12334,-74.436914)">
          <circle
             style="fill:none;fill-opacity:1"
             id="circle128"
             r="10.80615"
             cy="90.231934"
             cx="491.94629" />
          <g
             id="g130">
            <path
               style="fill:#ffffff"
               id="path132"
               d="m 495.07373,87.10498 c 0,-0.4165 -0.33789,-0.75391 -0.75391,-0.75391 l -4.77246,0 c -0.41602,0 -0.75391,0.3374 -0.75391,0.75391 l 0,4.77295 1.33105,0 0,5.65186 3.61719,0 0,-5.65186 1.33203,0 0,-4.77295 1e-5,0 z"
               inkscape:connector-curvature="0" />
            <circle
               style="fill:#ffffff"
               id="circle134"
               r="1.63232"
               cy="84.090332"
               cx="491.93359" />
          </g>
          <path
             style="clip-rule:evenodd;fill:#ffffff;fill-rule:evenodd"
             id="path136"
             d="m 491.91846,78.3252 c -3.23145,0 -5.96777,1.12793 -8.20703,3.38379 -2.29785,2.3335 -3.44629,5.0957 -3.44629,8.28467 0,3.18897 1.14844,5.93164 3.44629,8.22705 2.29785,2.29395 5.03418,3.44189 8.20703,3.44189 3.21289,0 5.99805,-1.15674 8.35449,-3.47168 2.21973,-2.19727 3.3291,-4.92969 3.3291,-8.19727 0,-3.26758 -1.12891,-6.02881 -3.3877,-8.28467 -2.25879,-2.25586 -5.02343,-3.38378 -8.29589,-3.38378 z m 0.0303,2.0996 c 2.64844,0 4.89648,0.93408 6.74609,2.80127 1.87012,1.84717 2.80469,4.10352 2.80469,6.76758 0,2.68359 -0.91504,4.91064 -2.74609,6.68066 -1.92773,1.90576 -4.19629,2.8584 -6.80469,2.8584 -2.61035,0 -4.85938,-0.94287 -6.74805,-2.82959 -1.88867,-1.88623 -2.83301,-4.12256 -2.83301,-6.70947 0,-2.58691 0.9541,-4.84229 2.8623,-6.76758 1.83107,-1.86718 4.07032,-2.80127 6.71876,-2.80127 z"
             inkscape:connector-curvature="0" />
        </g>
        <g
           transform="matrix(0.621108,0,0,0.6210385,-285.77182,240.48957)"
           id="g6332_1_">
          <path
             style="fill:none;fill-opacity:1"
             d="m 644.57642,-363.11569 c 0.008,9.4118 -7.61731,17.04779 -17.02979,17.05481 -9.4126,0.005 -17.047,-7.61725 -17.05493,-17.03137 0,-0.007 0,-0.0164 0,-0.0234 -0.006,-9.4118 7.6189,-17.04779 17.02991,-17.05481 9.4126,-0.007 17.047,7.61804 17.05481,17.02905 0,0.009 0,0.0164 0,0.0258 z"
             rx="29.209877"
             type="arc"
             cy="252.08646"
             ry="29.209877"
             cx="475.97119"
             id="path6334_1_"
             inkscape:connector-curvature="0" />
          <g
             transform="translate(-23.9521,-89.72962)"
             id="g6336_1_">
            <path
               style="fill:#ffffff"
               d="m 651.36426,-292.05655 c -5.17188,0 -9.55005,1.80548 -13.13135,5.41333 -3.67651,3.73444 -5.51562,8.15399 -5.51562,13.25714 0,5.10315 1.83911,9.48993 5.51562,13.1626 3.67505,3.67194 8.05322,5.50787 13.13135,5.50787 5.14075,0 9.59546,-1.85236 13.36572,-5.55396 3.55164,-3.51721 5.32825,-7.88916 5.32825,-13.11652 0,-5.22742 -1.80627,-9.64697 -5.422,-13.25714 -3.61401,-3.60784 -8.03748,-5.41332 -13.27197,-5.41332 z m 0.0469,3.36096 c 4.23755,0 7.83447,1.49298 10.79541,4.48132 2.99072,2.95544 4.48596,6.56329 4.48596,10.82819 0,4.29376 -1.46399,7.85632 -4.3938,10.68994 -3.08276,3.04846 -6.71411,4.57269 -10.88757,4.57269 -4.17505,0 -7.77344,-1.5094 -10.79541,-4.5274 -3.02185,-3.01874 -4.53284,-6.59613 -4.53284,-10.73523 0,-4.1391 1.52502,-7.74847 4.57971,-10.82819 2.92823,-2.98834 6.51099,-4.48132 10.74854,-4.48132 z"
               id="path6338_1_"
               inkscape:connector-curvature="0" />
            <path
               style="fill:#ffffff"
               d="m 643.08923,-276.02048 c 0.74377,-4.69849 4.05005,-7.20941 8.19543,-7.20941 5.95935,0 9.59216,4.32501 9.59216,10.09222 0,5.62817 -3.8656,9.99854 -9.68604,9.99854 -4.00464,0 -7.59058,-2.46332 -8.24219,-7.30084 l 4.70312,0 c 0.14062,2.51099 1.77039,3.39532 4.09851,3.39532 2.6532,0 4.37659,-2.46484 4.37659,-6.23206 0,-3.95471 -1.48901,-6.04614 -4.28442,-6.04614 -2.04846,0 -3.81726,0.74451 -4.19067,3.30237 l 1.36719,-0.009 -3.70154,3.70319 -3.70166,-3.70319 1.47352,0.009 z"
               id="path6340_1_"
               inkscape:connector-curvature="0" />
          </g>
        </g>
        <g
           id="g2366"
           transform="translate(4.972327e-4,0.00962355)">
          <path
             style="fill:none;fill-opacity:1"
             d="m 87.801399,14.981221 c 0.0048,5.500587 -4.451603,9.961917 -9.953251,9.966304 -5.500714,0.0034 -9.962985,-4.45211 -9.966848,-9.951763 0,-0.0058 0,-0.01019 0,-0.01454 -0.0039,-5.5010765 4.452572,-9.9624055 9.953251,-9.9667814 5.50068,-0.00341 9.96295,4.4521099 9.966848,9.9517284 0,0.0049 0,0.01019 0,0.01505 z"
             rx="29.209877"
             type="arc"
             cy="252.08646"
             ry="29.209877"
             cx="475.97119"
             id="path6372_1_"
             inkscape:connector-curvature="0" />
          <path
             style="fill:#ffffff"
             d="m 86.070369,6.7455646 c -2.24512,-2.242292 -4.99278,-3.362732 -8.24368,-3.362732 -3.21268,0 -5.93132,1.12044 -8.15662,3.362732 -2.28405,2.319442 -3.42502,5.0635624 -3.42502,8.2337704 0,3.169502 1.14097,5.89522 3.42502,8.175023 2.28334,2.28122 5.00198,3.421479 8.15662,3.421479 3.19286,0 5.96033,-1.150166 8.30171,-3.449789 2.2062,-2.184252 3.30965,-4.900058 3.30965,-8.146713 0,-3.247361 -1.12256,-5.9921884 -3.36768,-8.2337704 z m -1.45169,14.8728804 c -1.916,1.894056 -4.17032,2.840378 -6.76297,2.840378 -2.59336,0 -4.82858,-0.93712 -6.70565,-2.812068 -1.87707,-1.874948 -2.8156,-4.097421 -2.8156,-6.667423 0,-1.087172 0.17164,-2.114891 0.51103,-3.083862 l 3.07288,1.360027 -0.22154,0 0,1.378074 1.08753,0 c 0,0.194644 -0.01946,0.388581 -0.01946,0.582514 l 0,0.33054 -1.06807,0 0,1.378074 1.262,0 c 0.17482,1.029132 0.56305,1.863623 1.08717,2.523993 1.08717,1.436821 2.83436,2.213272 4.73692,2.213272 1.24288,0 2.36828,-0.368761 3.02865,-0.738229 l -0.46644,-2.154525 c -0.40769,0.213752 -1.31933,0.504658 -2.21257,0.504658 -0.97109,0 -1.88308,-0.290902 -2.50452,-0.990204 -0.29126,-0.329833 -0.50466,-0.776451 -0.6402,-1.358965 l 4.22057,0 5.99714,2.654584 c -0.41547,0.736114 -0.94277,1.416303 -1.58687,2.039162 z m -7.54225,-6.071813 -0.02548,-0.01946 0.04388,0.01946 -0.0184,0 z m 3.61045,-0.913054 0.17342,0 0,-1.378074 -3.287,0 -1.33525,-0.591008 c 0.11501,-0.258345 0.25091,-0.489441 0.40945,-0.670281 0.60198,-0.738937 1.45594,-1.048951 2.3881,-1.048951 0.85431,0 1.64987,0.251974 2.15453,0.46573 l 0.54358,-2.2132724 c -0.6993,-0.310015 -1.72773,-0.581808 -2.91187,-0.581808 -1.82469,0 -3.37794,0.737523 -4.48458,1.9797014 -0.2456,0.283824 -0.45865,0.602333 -0.65188,0.939244 l -3.8136,-1.6877374 c 0.36947,-0.554204 0.80406,-1.086465 1.3073,-1.593953 1.81974,-1.855836 4.04434,-2.783755 6.67662,-2.783755 2.63158,0 4.8668,0.927919 6.70565,2.783755 1.85725,1.8360194 2.78588,4.0776014 2.78588,6.7261704 0,0.872709 -0.0991,1.695876 -0.29445,2.471617 l -6.3659,-2.817378 z"
             id="path45"
             inkscape:connector-curvature="0" />
        </g>
      </g>
    </g>
  </g>
</svg>
